<svg width="12" height="13" viewBox="0 0 12 13" fill="none" xmlns="http://www.w3.org/2000/svg">
<path d="M10.3125 1.30639L10.4257 1.19321C10.7858 0.833059 11.3697 0.833059 11.7299 1.19321C12.09 1.55335 12.09 2.13726 11.7299 2.49741L11.6167 2.61059C12.0187 3.06058 12.0036 3.75163 11.5717 4.18361L3.70805 12.0472C3.65909 12.0962 3.59775 12.1309 3.53059 12.1477L0.474647 12.9117C0.344474 12.9442 0.20677 12.9061 0.111891 12.8112C0.0170117 12.7163 -0.0211299 12.5786 0.0114134 12.4484L0.775398 9.39251C0.79219 9.32534 0.82692 9.264 0.875876 9.21505L8.24165 1.84927C8.09258 1.74415 7.88512 1.75827 7.75174 1.89165L5.23602 4.40737C5.08684 4.55655 4.84498 4.55655 4.6958 4.40737C4.54662 4.25819 4.54662 4.01633 4.6958 3.86715L7.21152 1.35143C7.64392 0.919037 8.33588 0.904411 8.78583 1.30756C9.2196 0.918914 9.87828 0.918525 10.3125 1.30639Z" fill="#8C5B55"/>
</svg>
