<svg width="27" height="28" viewBox="0 0 27 28" fill="none" xmlns="http://www.w3.org/2000/svg">
<path d="M17.5882 26.7444V2.5C17.5882 1.94771 17.1405 1.5 16.5882 1.5H10.174C9.62172 1.5 9.174 1.94772 9.174 2.5V26.7444M17.5882 26.7444L17.5859 12.0224C17.5858 11.47 18.0336 11.0222 18.5859 11.0222H25C25.5523 11.0222 26 11.4699 26 12.0222V25.7444C26 26.2967 25.5523 26.7444 25 26.7444H17.5882ZM17.5882 26.7444H9.174M9.174 26.7444V19.4111C9.174 18.8588 8.72629 18.4111 8.174 18.4111H2C1.44772 18.4111 1 18.8588 1 19.4111V25.7444C1 26.2967 1.44772 26.7444 2 26.7444H9.174Z" stroke="white" stroke-width="2" stroke-linecap="round" stroke-linejoin="round"/>
</svg>
