<svg width="35" height="33" viewBox="0 0 35 33" fill="none" xmlns="http://www.w3.org/2000/svg">
<path d="M18.1277 12.5444L9.81384 17.9444M18.1277 12.5444V16.2444M18.1277 12.5444L13.9708 10.1444M9.81384 26.9444L1.5 22.1444V12.5444L9.81384 7.74438L13.9708 10.1444M9.81384 26.9444V17.9444M9.81384 26.9444L14.5 24.7444M9.81384 17.9444L2.01384 13.1444M14.5 24.7444V19.2444M14.5 24.7444V28.7444L22.5 31.7444M14.5 19.2444L22.5 22.1444M14.5 19.2444L19 16.2444L24 13.1444L26 13.9711M22.5 31.7444L31.5 25.7444V20.9944M22.5 31.7444V22.1444M31.5 16.2444L27 19.1944L22.5 22.1444M31.5 16.2444L26 13.9711M31.5 16.2444V20.9944M13.9708 10.1444V6.74438M13.9708 6.74438L22.5 1.24438L27.5 2.74438L33.5 4.24438M13.9708 6.74438L20 8.24438L26 9.74438M26 9.74438V13.9711M26 9.74438L33.5 4.24438M33.5 4.24438V19.2444L31.5 20.9944" stroke="white" stroke-width="2" stroke-linecap="round" stroke-linejoin="round"/>
</svg>
