<svg width="12" height="14" viewBox="0 0 12 14" fill="none" xmlns="http://www.w3.org/2000/svg">
<path d="M0.923077 0.923077C0.413276 0.923077 0 1.33635 0 1.84615V2.76923C0 3.27903 0.413276 3.69231 0.923077 3.69231H1.38462V12C1.38462 13.0196 2.21117 13.8462 3.23077 13.8462H8.76923C9.78883 13.8462 10.6154 13.0196 10.6154 12V3.69231H11.0769C11.5867 3.69231 12 3.27903 12 2.76923V1.84615C12 1.33635 11.5867 0.923077 11.0769 0.923077H7.84615C7.84615 0.413276 7.43288 0 6.92308 0H5.07692C4.56712 0 4.15385 0.413276 4.15385 0.923077H0.923077ZM3.69231 4.61538C3.94721 4.61538 4.15385 4.82202 4.15385 5.07692V11.5385C4.15385 11.7934 3.94721 12 3.69231 12C3.43741 12 3.23077 11.7934 3.23077 11.5385L3.23077 5.07692C3.23077 4.82202 3.43741 4.61538 3.69231 4.61538ZM6 4.61538C6.2549 4.61538 6.46154 4.82202 6.46154 5.07692V11.5385C6.46154 11.7934 6.2549 12 6 12C5.7451 12 5.53846 11.7934 5.53846 11.5385V5.07692C5.53846 4.82202 5.7451 4.61538 6 4.61538ZM8.76923 5.07692V11.5385C8.76923 11.7934 8.56259 12 8.30769 12C8.05279 12 7.84615 11.7934 7.84615 11.5385V5.07692C7.84615 4.82202 8.05279 4.61538 8.30769 4.61538C8.56259 4.61538 8.76923 4.82202 8.76923 5.07692Z" fill="#8C5B55"/>
</svg>
