<svg width="20" height="21" viewBox="0 0 20 21" fill="none" xmlns="http://www.w3.org/2000/svg">
<path fill-rule="evenodd" clip-rule="evenodd" d="M8.125 15.5C11.922 15.5 15 12.422 15 8.625C15 4.82804 11.922 1.75 8.125 1.75C4.32804 1.75 1.25 4.82804 1.25 8.625C1.25 12.422 4.32804 15.5 8.125 15.5ZM16.25 8.625C16.25 13.1123 12.6123 16.75 8.125 16.75C3.63769 16.75 0 13.1123 0 8.625C0 4.13769 3.63769 0.5 8.125 0.5C12.6123 0.5 16.25 4.13769 16.25 8.625Z" fill="#8C5B55"/>
<path d="M12.9299 15.1777C12.9667 15.2277 13.0078 15.2755 13.053 15.3208L17.8661 20.1339C18.3543 20.622 19.1457 20.622 19.6339 20.1339C20.122 19.6457 20.122 18.8543 19.6339 18.3661L14.8208 13.553C14.7755 13.5078 14.7277 13.4667 14.6777 13.4299C14.1874 14.0974 13.5974 14.6874 12.9299 15.1777Z" fill="#8C5B55"/>
</svg>
