<svg width="16" height="15" viewBox="0 0 16 15" fill="none" xmlns="http://www.w3.org/2000/svg">
<path d="M5 13.5V14.5M1 10.5H4M4 9.5V7.5H6V6.5M14.5 14.5H13V12M13 9.5V12M11 12H13M9 4.5V5.5M9 8.5V7.5M10 7.5H9M9 7.5V5.5M8 5.5H9M7 3V1.5H5V1M1 5.5V6.75M1 5.5V5M1 5.5H2M1 8V6.75M1 6.75H2M12 5.5V6.5M12 7.5V6.5M12 6.5H13M5 12H7.5M7.5 14.5V13.75M7.5 13V13.75M7.5 13.75H6M11 13V13.5M11 14V14.5H9.5V13M5 0.5V1M5 0V1M8 0.5H10.5M5.5 8.5H4.5H6M15 4.5V5.5M15 6V5.5M15 5.5H13.5M15 5.5V6.5M10 9.5V10.5H9M8 10.5H9M9 10.5V11.5H11V8.5M4 4.5H5M6 4.5H5M5 4.5V5.5M9 2.5H10V3.5H9V1.5M6 10H7M14 7.5H15V8.5H14H13M15 13.5V10M1 0.5V3H3.5V0.5H1ZM1 12V14.5H3.5V12H1ZM12.5 0.5V3H15V0.5H12.5Z" stroke="#8C5B55"/>
</svg>
