<svg width="24" height="34" viewBox="0 0 24 34" fill="none" xmlns="http://www.w3.org/2000/svg">
<path d="M1.00226 13.4796C0.999695 13.4756 0.998829 13.483 1.00226 13.5766M1.00226 13.4796C0.997825 13.4854 1.02211 13.4322 1.04705 13.3778M1.00226 13.4796C5.47976 17.1218 7.41037 17.1291 9.82283 14.8677C9.96348 14.7358 10.1058 14.5963 10.2503 14.4493C10.4273 14.2408 11.2046 13.3283 11.3765 13.1319M14.73 10.1828C14.73 10.1828 12.3457 9.34377 9.82283 9.16738C7.30002 8.99099 2.78293 9.20773 1.04705 13.3778M1.00226 13.5766V13.6735V14.2554V15.516V18.3281V21.3342V29.4796L1.00226 33.0005C1.00083 33.0678 1.02202 33.0885 1.10856 33.0974L22.6873 33.0676C22.7608 33.0648 22.7831 33.0494 22.7936 33.0005L22.7936 9.43684C22.7981 9.28255 22.766 9.21599 22.581 9.16741C17.2887 8.05923 15.2424 8.71531 11.3765 13.1319M1.00226 13.5766L1.04705 13.3778M9.82283 7.2401C9 7.00006 8.67044 6.50022 8.5 6.00022C7.93765 4.35053 10 2.00006 11.5 1.00006C13 6.40154e-05 14.7155 5.36512 14.0571 6.41577C14.0388 6.44499 14.0198 6.47316 14 6.50022C13.27 7.50038 12.1958 7.44627 11.3765 7.50955M9.82283 7.2401C10.066 7.26767 11.0087 7.53796 11.3765 7.50955M9.82283 7.2401C9.92911 6.22122 10.5 5.50013 11.5 4.50006C12.5 3.5 13.1155 5.77527 13.7906 7.2401M11.3765 7.50955V13.1319" stroke="white" stroke-width="1.5"/>
</svg>
